<?xml version="1.0" encoding="utf-8"?>
<!-- Generator: Adobe Illustrator 17.0.0, SVG Export Plug-In . SVG Version: 6.00 Build 0)  -->
<!DOCTYPE svg PUBLIC "-//W3C//DTD SVG 1.1//EN" "http://www.w3.org/Graphics/SVG/1.1/DTD/svg11.dtd">
<svg version="1.1" id="Layer_1" xmlns="http://www.w3.org/2000/svg" xmlns:xlink="http://www.w3.org/1999/xlink" x="0px" y="0px"
	 width="200px" height="200px" viewBox="0 0 200 200" enable-background="new 0 0 200 200" xml:space="preserve">
<g>
	<path fill="#245286" d="M121.328,139.577c-1.962,0-3.555,1.593-3.555,3.555c0,1.962,1.593,3.555,3.555,3.555
		s3.555-1.593,3.555-3.555C124.882,141.17,123.29,139.577,121.328,139.577z"/>
	<path fill="#245286" d="M173.227,16.584H26.773C16.973,16.584,9,24.557,9,34.357V143.13c0,9.801,7.973,17.773,17.773,17.773h55.453
		v16.352h-3.555c-4.746,0-9.208,1.849-12.566,5.207c-3.358,3.359-5.207,7.82-5.207,12.566c0,1.964,1.591,3.555,3.555,3.555h71.093
		c1.964,0,3.555-1.591,3.555-3.555c0-9.801-7.973-17.773-17.773-17.773h-3.555v-16.352h55.453c9.801,0,17.773-7.973,17.773-17.773
		V34.357C191,24.557,183.027,16.584,173.227,16.584z M26.773,23.693h146.453c5.88,0,10.664,4.784,10.664,10.664v91h-16.352V43.6
		c0-1.964-1.591-3.555-3.555-3.555h-28.437c-1.964,0-3.555,1.591-3.555,3.555v81.757h-17.793c-0.038-3.677-0.133-7.301-0.286-10.817
		c-0.622-14.477-2.04-24.175-2.777-28.44c7.334-5.4,9.336-15.409,4.853-23.184l-12.321-21.34c-0.636-1.1-1.81-1.778-3.078-1.778
		c-1.27,0-2.444,0.677-3.078,1.778L85.186,62.917c-4.226,7.332-2.728,16.827,3.911,22.432c-0.769,4.254-2.322,14.298-2.996,29.185
		c-0.159,3.554-0.261,7.181-0.3,10.823H68.007v-53.32c0-0.564-0.133-1.078-0.351-1.535c-0.009-0.018-0.015-0.038-0.023-0.055
		L53.415,42.01c-0.602-1.204-1.833-1.964-3.179-1.964s-2.577,0.761-3.179,1.964l-14.22,28.438c-0.008,0.018-0.014,0.038-0.023,0.055
		c-0.222,0.461-0.353,0.983-0.353,1.535v53.32H16.108v-91C16.109,28.477,20.893,23.693,26.773,23.693z M139.102,125.357V47.154
		h21.328v7.109h-3.555c-1.964,0-3.555,1.591-3.555,3.555s1.591,3.555,3.555,3.555h3.555v10.664h-3.555
		c-1.964,0-3.555,1.591-3.555,3.555s1.591,3.555,3.555,3.555h3.555v10.664h-3.555c-1.964,0-3.555,1.591-3.555,3.555
		s1.591,3.555,3.555,3.555h3.555v14.219h-3.555c-1.964,0-3.555,1.591-3.555,3.555s1.591,3.555,3.555,3.555h3.555v7.109
		L139.102,125.357L139.102,125.357z M100.59,89.565c1.291,0,2.577-0.148,3.835-0.426c0.66,4.228,1.629,11.71,2.202,22H93.396
		c0.601-10.284,1.616-17.882,2.317-22.253C97.288,89.334,98.928,89.565,100.59,89.565z M100.59,82.456
		c-8.124,0-13.364-8.842-9.246-15.985l9.246-16.008l9.241,16.006C113.932,73.583,108.766,82.456,100.59,82.456z M93.07,118.248
		h13.87c0.075,2.336,0.127,4.711,0.151,7.109H92.91C92.937,122.974,92.99,120.599,93.07,118.248z M53.789,125.357V75.591h7.109
		v49.766C60.898,125.357,53.789,125.357,53.789,125.357z M39.57,125.357V75.591h7.109v49.766
		C46.68,125.357,39.57,125.357,39.57,125.357z M41.767,68.482l8.468-16.934l8.468,16.934H41.767z M131.383,191.475h-62.77
		c0.523-1.481,1.374-2.84,2.519-3.985c2.016-2.015,4.694-3.124,7.54-3.124h42.656C125.963,184.365,129.916,187.337,131.383,191.475z
		 M110.664,177.256H89.336v-16.352h21.328V177.256z M173.227,153.795H26.773c-5.88,0-10.664-4.784-10.664-10.664v-10.664H183.89
		v10.664C183.891,149.011,179.107,153.795,173.227,153.795z"/>
	<path fill="#245286" d="M107.109,139.577H85.781c-1.964,0-3.555,1.591-3.555,3.555c0,1.964,1.591,3.555,3.555,3.555h21.328
		c1.964,0,3.555-1.591,3.555-3.555C110.664,141.168,109.073,139.577,107.109,139.577z"/>
</g>
</svg>
